<svg width="18" height="18" viewBox="0 0 18 18" fill="none" xmlns="http://www.w3.org/2000/svg">
<path d="M13.4994 0.0037452L11.1653 0C8.5429 0 6.84821 1.73871 6.84821 4.42982V6.47227H4.5013C4.2985 6.47227 4.13428 6.63668 4.13428 6.83949V9.79876C4.13428 10.0016 4.29869 10.1658 4.5013 10.1658H6.84821V17.633C6.84821 17.8358 7.01243 18 7.21524 18H10.2773C10.4801 18 10.6443 17.8356 10.6443 17.633V10.1658H13.3884C13.5912 10.1658 13.7554 10.0016 13.7554 9.79876L13.7565 6.83949C13.7565 6.74211 13.7178 6.64886 13.6491 6.57994C13.5803 6.51103 13.4867 6.47227 13.3893 6.47227H10.6443V4.74086C10.6443 3.90868 10.8426 3.48622 11.9267 3.48622L13.4991 3.48566C13.7017 3.48566 13.8659 3.32124 13.8659 3.11863V0.370775C13.8659 0.168347 13.7019 0.00411972 13.4994 0.0037452Z" fill="#929292"/>
</svg>
