<svg width="78" height="69" viewBox="0 0 78 69" fill="none" xmlns="http://www.w3.org/2000/svg">
<path d="M6.24905 29.1122C6.65501 29.2747 7.12583 29.2747 7.53179 29.0798L20.2127 23.3158C21.0244 22.9261 21.3654 21.9519 20.9757 21.1401C20.6023 20.3607 19.6769 20.0035 18.8812 20.3607L9.99971 24.4037C14.2375 11.7228 26.0416 3.24728 39.6316 3.24728C53.8712 3.24728 66.3247 12.762 69.9129 26.3845C70.1402 27.245 71.0332 27.7647 71.8937 27.5372C72.7542 27.31 73.2739 26.4169 73.0465 25.5564C69.0847 10.5213 55.3485 0 39.6315 0C24.6451 0 11.607 9.35231 6.89841 23.3483L3.16404 14.0123C2.88806 13.168 1.96257 12.6972 1.11822 12.9731C0.273863 13.2491 -0.196949 14.1746 0.0790231 15.0189C0.0953105 15.0839 0.127733 15.1488 0.160156 15.2138L5.33969 28.203C5.50211 28.609 5.82679 28.95 6.24905 29.1122Z" fill="black"/>
<path d="M77.9014 53.0775C77.8851 53.0451 77.869 53.0125 77.869 52.9801L72.6895 39.9909C72.527 39.5849 72.2024 39.2439 71.7803 39.0817C71.3743 38.9192 70.9035 38.9355 70.4975 39.1141L57.8166 44.8781C56.9886 45.2191 56.5989 46.177 56.9399 47.0051C57.2808 47.8332 58.2387 48.2228 59.0668 47.8819C59.0992 47.8656 59.1318 47.8494 59.1642 47.8332L68.0457 43.7902C63.7755 56.4711 51.9552 64.9466 38.3814 64.9466C24.1418 64.9466 11.6884 55.4319 8.1001 41.8094C7.87284 40.9489 6.97978 40.4293 6.11929 40.6567C5.25879 40.8839 4.73912 41.777 4.96653 42.6375C8.91204 57.6889 22.6645 68.1939 38.3815 68.1939C53.3679 68.1939 66.3897 58.8416 71.1146 44.8456L74.849 54.1816C75.1575 55.0259 76.083 55.4643 76.9272 55.1558C77.7714 54.8474 78.2098 53.9219 77.9014 53.0775Z" fill="black"/>
</svg>
