<svg width="50" height="105" viewBox="0 0 50 105" fill="none" xmlns="http://www.w3.org/2000/svg">
<path d="M46.9121 77.7185L40.0966 64.2236C39.4833 63.0094 39.4227 61.5892 39.9303 60.3268L46.6277 43.6687C47.0037 42.7342 47.1942 41.7495 47.1942 40.7421V32.9632C47.1942 30.7971 45.9167 28.8255 43.9399 27.9402L34.064 23.5181C33.4723 23.2533 33.0898 22.663 33.0898 22.0143V17.64C33.0898 15.7879 31.5832 14.2812 29.7311 14.2812H26.2815V11.1053C28.662 10.4372 30.4132 8.24905 30.4132 5.65827C30.4132 2.53826 27.8749 0 24.7549 0C21.6349 0 19.0968 2.53826 19.0968 5.65827C19.0968 8.24926 20.848 10.4374 23.2283 11.1053V14.2812H19.7785C17.9266 14.2812 16.4199 15.7879 16.4199 17.64V22.0147C16.4199 22.6634 16.0375 23.2537 15.4455 23.5187L5.56993 27.9406C3.59306 28.8259 2.31558 30.7975 2.31558 32.9636V40.7425C2.31558 41.7497 2.5061 42.7344 2.88186 43.6689L9.57945 60.3272C10.0869 61.5892 10.0262 63.0096 9.41295 64.224L2.5975 77.7189C0.898265 81.0834 0 84.8543 0 88.6237V93.3287C0 95.7962 2.00741 97.8036 4.47483 97.8036H19.3741V102.691C19.3741 103.534 20.0576 104.217 20.9007 104.217C21.7438 104.217 22.4273 103.534 22.4273 102.691V97.8034H27.0821V102.691C27.0821 103.534 27.7654 104.217 28.6087 104.217C29.452 104.217 30.1353 103.534 30.1353 102.691V97.8034H45.0347C47.5022 97.8034 49.5096 95.796 49.5096 93.3285V88.6235C49.5098 84.8541 48.6115 81.0834 46.9121 77.7185ZM22.1499 5.65827C22.1499 4.22182 23.3184 3.05324 24.7549 3.05324C26.1913 3.05324 27.3599 4.22182 27.3599 5.65827C27.3599 7.09472 26.1911 8.2631 24.7549 8.2631C23.3186 8.2631 22.1499 7.09452 22.1499 5.65827ZM19.4732 17.64C19.4732 17.4715 19.6102 17.3345 19.7785 17.3345H29.7311C29.8996 17.3345 30.0366 17.4715 30.0366 17.64V22.0147C30.0366 22.8322 30.2501 23.6166 30.6334 24.3034C26.8885 25.6072 21.7521 25.6098 18.7768 24.4697C19.2216 23.7445 19.4732 22.8993 19.4732 22.0147V17.64ZM5.71465 42.5297C5.48525 41.9587 5.36882 41.3574 5.36882 40.7423V32.9634C5.36882 31.999 5.93754 31.1211 6.81769 30.727L16.0047 26.6137C17.1863 27.1973 19.6889 28.1967 23.2283 28.3608V33.7923C23.2283 34.6356 23.9118 35.3189 24.7549 35.3189C25.5982 35.3189 26.2815 34.6356 26.2815 33.7923V28.2883C28.4086 28.0941 30.7969 27.5806 33.4055 26.5691L42.6919 30.727C43.5722 31.1213 44.141 31.999 44.141 32.9634V40.7423C44.141 41.3574 44.0247 41.9589 43.7949 42.5297L37.0973 59.188V59.1882C36.5569 60.5324 36.4105 61.9855 36.6465 63.3851H26.2815V40.9357C26.2815 40.0924 25.5982 39.409 24.7549 39.409C23.9118 39.409 23.2283 40.0924 23.2283 40.9357V63.3851H12.8633C13.0992 61.9853 12.9529 60.5324 12.4125 59.188L5.71465 42.5297ZM11.7149 66.4384H23.2283V87.0966H3.11146C3.31501 84.3192 4.06753 81.58 5.32282 79.0947L11.7149 66.4384ZM4.47483 94.7501C3.69096 94.7501 3.05324 94.1124 3.05324 93.3285V90.1501H23.2283V94.7503H4.47483V94.7501ZM45.0349 94.7501H26.2815V66.4384H37.7949L44.187 79.0949C45.4422 81.5802 46.195 84.3194 46.3983 87.0969H31.9111C31.0678 87.0969 30.3845 87.7802 30.3845 88.6235C30.3845 89.4668 31.0678 90.1501 31.9111 90.1501H46.4565V93.3285C46.4565 94.1124 45.8188 94.7501 45.0349 94.7501Z" fill="black"/>
</svg>
