<svg width="107" height="81" viewBox="0 0 107 81" fill="none" xmlns="http://www.w3.org/2000/svg">
<path d="M8.12047 17.8989H24.6441C25.5094 17.8989 26.2109 17.1976 26.2109 16.3321C26.2109 15.4667 25.5094 14.7654 24.6441 14.7654H8.12047C7.2552 14.7654 6.55371 15.4667 6.55371 16.3321C6.55371 17.1976 7.25499 17.8989 8.12047 17.8989Z" fill="black"/>
<path d="M24.0775 25.4417H17.5502C16.6849 25.4417 15.9834 26.1429 15.9834 27.0084C15.9834 27.8739 16.6849 28.5752 17.5502 28.5752H24.0775C24.9428 28.5752 25.6442 27.8739 25.6442 27.0084C25.6442 26.1429 24.9428 25.4417 24.0775 25.4417Z" fill="black"/>
<path d="M1.56676 36.3071H17.5502C18.4155 36.3071 19.117 35.6058 19.117 34.7403C19.117 33.8749 18.4155 33.1736 17.5502 33.1736H1.56676C0.70149 33.1736 0 33.8749 0 34.7403C0 35.6058 0.70149 36.3071 1.56676 36.3071Z" fill="black"/>
<path d="M26.2109 64.0826C26.2109 63.2172 25.5094 62.5159 24.6441 62.5159H8.12047C7.2552 62.5159 6.55371 63.2172 6.55371 64.0826C6.55371 64.9481 7.2552 65.6494 8.12047 65.6494H24.6441C25.5094 65.6494 26.2109 64.9481 26.2109 64.0826Z" fill="black"/>
<path d="M24.0775 51.8396H17.5502C16.6849 51.8396 15.9834 52.5409 15.9834 53.4064C15.9834 54.2718 16.6849 54.9731 17.5502 54.9731H24.0775C24.9428 54.9731 25.6442 54.2718 25.6442 53.4064C25.6442 52.5409 24.9428 51.8396 24.0775 51.8396Z" fill="black"/>
<path d="M19.117 45.6749C19.117 44.8094 18.4155 44.1082 17.5502 44.1082H1.56676C0.70149 44.1082 0 44.8094 0 45.6749C0 46.5404 0.70149 47.2417 1.56676 47.2417H17.5502C18.4155 47.2417 19.117 46.5404 19.117 45.6749Z" fill="black"/>
<path d="M66.7504 21.3707C67.6158 21.3707 68.3171 20.6694 68.3171 19.804V17.4125C68.3171 16.547 67.6158 15.8457 66.7504 15.8457C65.8849 15.8457 65.1836 16.547 65.1836 17.4125V19.804C65.1836 20.6694 65.8849 21.3707 66.7504 21.3707Z" fill="black"/>
<path d="M83.9761 22.981C83.364 22.3693 82.3722 22.3693 81.7603 22.981L80.0693 24.672C79.4574 25.2841 79.4574 26.276 80.0693 26.8878C80.6815 27.4997 81.6732 27.4995 82.2851 26.8878L83.9761 25.1968C84.5878 24.5849 84.5878 23.593 83.9761 22.981Z" fill="black"/>
<path d="M87.1532 38.6406C86.2877 38.6406 85.5864 39.3419 85.5864 40.2074C85.5864 41.0729 86.2877 41.7741 87.1532 41.7741H89.5445C90.41 41.7741 91.1112 41.0729 91.1112 40.2074C91.1112 39.3419 90.41 38.6406 89.5445 38.6406H87.1532Z" fill="black"/>
<path d="M82.2851 53.5266C81.673 52.915 80.6811 52.915 80.0693 53.5266C79.4574 54.1387 79.4574 55.1306 80.0693 55.7424L81.7603 57.4335C82.3726 58.0454 83.3643 58.0451 83.9761 57.4335C84.588 56.8214 84.588 55.8295 83.9761 55.2177L82.2851 53.5266Z" fill="black"/>
<path d="M65.1836 60.6109V63.0022C65.1836 63.8677 65.8849 64.569 66.7504 64.569C67.6158 64.569 68.3171 63.8677 68.3171 63.0022V60.6109C68.3171 59.7455 67.6158 59.0442 66.7504 59.0442C65.8849 59.0442 65.1836 59.7457 65.1836 60.6109Z" fill="black"/>
<path d="M51.2144 53.5266L49.5234 55.2177C48.9115 55.8298 48.9115 56.8216 49.5234 57.4335C50.1354 58.0454 51.1273 58.0451 51.739 57.4335L53.43 55.7424C54.0419 55.1304 54.0419 54.1385 53.43 53.5266C52.8184 52.915 51.8263 52.915 51.2144 53.5266Z" fill="black"/>
<path d="M43.9549 38.6406C43.0897 38.6406 42.3882 39.3419 42.3882 40.2074C42.3882 41.0729 43.0897 41.7741 43.9549 41.7741H46.3464C47.2117 41.7741 47.9132 41.0729 47.9132 40.2074C47.9132 39.3419 47.2117 38.6406 46.3464 38.6406H43.9549Z" fill="black"/>
<path d="M53.4305 24.672L51.7395 22.981C51.1276 22.3693 50.1355 22.3693 49.5238 22.981C48.912 23.593 48.912 24.5849 49.5238 25.1968L51.2149 26.8878C51.827 27.4997 52.8188 27.4995 53.4305 26.8878C54.0424 26.276 54.0424 25.2841 53.4305 24.672Z" fill="black"/>
<path d="M75.1753 40.2076C75.1753 39.3421 74.4741 38.6409 73.6086 38.6409H68.3171V27.0084C68.3171 26.1429 67.6158 25.4417 66.7504 25.4417C65.8849 25.4417 65.1836 26.1429 65.1836 27.0084V40.2076C65.1836 41.0731 65.8849 41.7744 66.7504 41.7744H73.6086C74.4738 41.7744 75.1753 41.0731 75.1753 40.2076Z" fill="black"/>
<path d="M96.4581 39.9488C97.3219 39.8963 97.9795 39.1537 97.9271 38.2901C96.9304 21.8489 83.2357 8.96997 66.7496 8.96997C49.5253 8.96997 35.5122 22.9831 35.5122 40.2076C35.5122 57.4319 49.5253 71.445 66.7496 71.445C82.1809 71.445 95.3482 60.1388 97.6388 44.8818C97.7673 44.0261 97.1777 43.2283 96.3219 43.0998C95.4683 42.9718 94.6684 43.5607 94.5399 44.4167C92.4823 58.1236 80.6468 68.3117 66.7496 68.3117C51.2531 68.3117 38.6457 55.7043 38.6457 40.2078C38.6457 24.7113 51.2531 12.1037 66.7496 12.1037C81.5818 12.1037 93.9026 23.6896 94.7992 38.4802C94.8514 39.3434 95.5934 39.9989 96.4581 39.9488Z" fill="black"/>
<path d="M66.7499 0C61.2388 0 55.8394 1.14332 50.8696 3.28142H23.2259C22.3607 3.28142 21.6592 3.9827 21.6592 4.84818C21.6592 5.71366 22.3607 6.41494 23.2259 6.41494H44.9753C42.0346 8.30758 39.3274 10.5905 36.9405 13.226C36.3598 13.8671 36.4086 14.8579 37.05 15.4388C37.6915 16.0198 38.6819 15.9707 39.2631 15.3294C46.2826 7.57873 56.3013 3.13352 66.7499 3.13352C87.1925 3.13352 103.824 19.7648 103.824 40.2074C103.824 60.6499 87.1927 77.2813 66.7499 77.2813C46.3072 77.2813 29.676 60.6501 29.676 40.2074C29.676 33.0488 31.7209 26.1007 35.5893 20.114C36.0589 19.3873 35.8505 18.4176 35.1237 17.948C34.3969 17.4786 33.4272 17.6866 32.9574 18.4136C28.7606 24.9079 26.5425 32.444 26.5425 40.2074C26.5425 54.3638 33.897 66.8335 44.9853 73.9999H23.2261C22.3609 73.9999 21.6594 74.7012 21.6594 75.5667C21.6594 76.4321 22.3609 77.1334 23.2261 77.1334H50.8481C55.728 79.2431 61.1045 80.4148 66.7501 80.4148C88.9203 80.4148 106.957 62.3779 106.957 40.2074C106.957 18.0369 88.9203 0 66.7499 0Z" fill="black"/>
</svg>
