<svg width="80" height="80" viewBox="0 0 80 80" fill="none" xmlns="http://www.w3.org/2000/svg">
<path d="M49.2505 40.5237C48.3901 40.5237 47.6919 41.2219 47.6919 42.0823C47.6919 42.9426 48.3901 43.6409 49.2505 43.6409C50.1108 43.6409 50.8091 42.9426 50.8091 42.0823C50.8091 41.2219 50.1108 40.5237 49.2505 40.5237Z" fill="black"/>
<path d="M0.387282 36.8761C0.39149 36.8809 0.395231 36.8864 0.399595 36.891C0.400219 36.8917 0.400686 36.8924 0.40131 36.8932L38.7428 79.2871C39.0285 79.603 39.4615 79.8002 39.8988 79.8002C40.3348 79.8002 40.767 79.6052 41.0549 79.2871L79.3964 36.8932C79.397 36.8926 79.3975 36.8918 79.3981 36.891C79.4025 36.8862 79.406 36.8809 79.4104 36.8761C79.9099 36.3078 79.923 35.4732 79.4696 34.8917C79.4653 34.8861 79.462 34.8797 79.4575 34.8741L66.9887 19.2881C66.693 18.9184 66.2451 18.7031 65.7716 18.7031C59.4176 18.7031 19.1961 18.7031 14.0261 18.7031C13.5526 18.7031 13.1048 18.9184 12.809 19.2881L0.340213 34.8741C0.335693 34.8797 0.332575 34.8859 0.328055 34.8917C-0.130017 35.4793 -0.106638 36.3142 0.387282 36.8761ZM31.4296 21.8203H48.368L55.8492 34.2891H23.9483L31.4296 21.8203ZM23.5867 37.4063H56.2107L39.8987 74.3803L23.5867 37.4063ZM59.6179 37.4063H74.7293L45.2261 70.0275L59.6179 37.4063ZM20.1796 37.4063L34.5712 70.0275L5.06822 37.4063H20.1796ZM74.9974 34.2891H59.4843L52.0031 21.8203H65.0224L74.9974 34.2891ZM14.775 21.8203H27.7943L20.313 34.2891H4.79999L14.775 21.8203Z" fill="black"/>
<path d="M43.0157 40.5237H31.4478C30.5869 40.5237 29.8892 41.2215 29.8892 42.0823C29.8892 42.9431 30.5869 43.6409 31.4478 43.6409H43.0157C43.8765 43.6409 44.5743 42.9431 44.5743 42.0823C44.5743 41.2215 43.8765 40.5237 43.0157 40.5237Z" fill="black"/>
<path d="M39.8984 12.4688C40.7593 12.4688 41.457 11.771 41.457 10.9102V1.5586C41.457 0.697785 40.7593 0 39.8984 0C39.0376 0 38.3398 0.697785 38.3398 1.5586V10.9102C38.3398 11.771 39.0376 12.4688 39.8984 12.4688Z" fill="black"/>
<path d="M50.3527 12.0122L56.5871 5.7778C57.1957 5.16917 57.1957 4.18226 56.5871 3.57348C55.9785 2.96469 54.9916 2.96484 54.3828 3.57348L48.1484 9.80787C47.5397 10.4165 47.5397 11.4034 48.1484 12.0122C48.757 12.6208 49.7439 12.621 50.3527 12.0122Z" fill="black"/>
<path d="M29.4453 12.0124C30.054 12.621 31.0409 12.621 31.6496 12.0124C32.2583 11.4037 32.2583 10.4168 31.6496 9.80806L25.4153 3.57366C24.8066 2.96503 23.8197 2.96503 23.2109 3.57366C22.6021 4.18229 22.6023 5.1692 23.2109 5.77799L29.4453 12.0124Z" fill="black"/>
</svg>
