<svg width="93" height="79" viewBox="0 0 93 79" fill="none" xmlns="http://www.w3.org/2000/svg">
<path d="M88.2274 7.25565L72.135 0.551348C70.3697 -0.183903 68.3451 -0.183722 66.5801 0.551528L58.8537 3.76976C58.1631 4.05765 57.8363 4.85051 58.124 5.54115C58.4117 6.23179 59.2046 6.55869 59.8954 6.2708L67.6218 3.05239C68.7244 2.59293 69.9899 2.59275 71.0934 3.05221L87.1849 9.75616C88.7501 10.409 89.7617 11.8772 89.7617 13.496V71.4256C89.7617 73.6783 87.8268 75.5109 85.4488 75.5109H83.2526C82.5043 75.5109 81.898 76.1172 81.898 76.8655C81.898 77.6138 82.5043 78.2201 83.2526 78.2201H85.4488C89.3206 78.2201 92.4708 75.1721 92.4708 71.4256V13.496C92.4708 10.7804 90.8052 8.33099 88.2274 7.25565Z" fill="black"/>
<path d="M77.3485 75.5112H54.5884C55.5256 74.446 56.0387 73.0945 56.0387 71.6643C56.0387 70.2369 55.522 68.9288 54.667 67.9145C55.2061 67.6395 55.7053 67.2795 56.146 66.839C57.2462 65.7386 57.852 64.2755 57.852 62.7188C57.852 61.235 57.2935 59.8797 56.377 58.8499C56.8308 58.5929 57.2535 58.2743 57.632 57.8953C58.7323 56.7953 59.3382 55.3322 59.3382 53.7752C59.3382 52.2956 58.7832 50.9438 57.8718 49.9149C58.3333 49.6559 58.7631 49.3333 59.1486 48.9488C60.2481 47.8467 60.8535 46.384 60.8535 44.8295C60.8535 41.6158 58.2397 39.0013 55.0269 39.0013H48.9531V13.496C48.9531 11.8771 49.9647 10.4089 51.5291 9.7564L53.9928 8.73056C54.6834 8.44303 55.0101 7.65017 54.7226 6.95934C54.4349 6.2687 53.642 5.94144 52.9514 6.22951L50.4868 7.25572C47.9094 8.33087 46.244 10.7804 46.244 13.496V39.0015H40.5843C42.469 33.0458 42.3086 26.8302 40.1092 19.6163C39.775 18.5238 39.1104 17.5881 38.1866 16.9102C37.2682 16.2366 36.1799 15.8802 35.039 15.8802C33.5692 15.8802 32.2026 16.4672 31.1904 17.533C30.1789 18.5985 29.6638 19.9936 29.74 21.4608C30.1635 29.6056 26.4065 32.409 21.2067 36.2894C19.4947 37.5668 17.6236 38.964 15.7847 40.6774V38.902C15.7847 38.1538 15.1784 37.5475 14.4301 37.5475H1.35455C0.606297 37.5475 0 38.1538 0 38.902V77.3189C0 78.0671 0.606297 78.6734 1.35455 78.6734H14.4305C15.1787 78.6734 15.785 78.0671 15.785 77.3189V73.9112C18.3578 74.1559 20.2368 74.6687 22.0624 76.0678C23.2609 76.9864 24.7383 77.4923 26.2223 77.4923H50.1114C51.0874 77.968 52.1694 78.2201 53.2662 78.2201H77.3483C78.0966 78.2201 78.7029 77.6138 78.7029 76.8656C78.7029 76.1173 78.0966 75.5112 77.3485 75.5112ZM23.7104 73.9175C21.1563 71.9603 18.4266 71.4165 15.785 71.1884V55.3717C15.785 54.6235 15.1787 54.0172 14.4305 54.0172C13.6822 54.0172 13.0759 54.6235 13.0759 55.3717V75.9645H2.7091V40.2567H13.0759V49.4697C13.0759 50.2179 13.6822 50.8242 14.4305 50.8242C15.1787 50.8242 15.785 50.2179 15.785 49.4697V44.5256C18.0509 42.0251 20.4772 40.2145 22.8273 38.4608C28.0304 34.5783 32.9447 30.9109 32.446 21.3203C32.4086 20.6024 32.6606 19.9199 33.1558 19.3985C33.651 18.8767 34.32 18.5895 35.0395 18.5895C35.6 18.5895 36.134 18.7642 36.5843 19.0947C37.0338 19.4245 37.3569 19.8789 37.5187 20.4079C39.7588 27.7559 39.7238 33.938 37.4084 39.8636C37.2455 40.2804 37.2991 40.7507 37.5514 41.1204C37.8037 41.4901 38.2224 41.7112 38.6699 41.7112H55.0273C56.7463 41.7112 58.1447 43.1103 58.1447 44.8302C58.1447 45.6619 57.8202 46.4452 57.233 47.0338C56.6425 47.623 55.8593 47.9475 55.0273 47.9475H49.4628C48.7145 47.9475 48.1082 48.5538 48.1082 49.3021C48.1082 50.0503 48.7145 50.6566 49.4628 50.6566H53.512C55.2308 50.6566 56.6293 52.0558 56.6293 53.7759C56.6293 54.609 56.3053 55.392 55.7165 55.9806C55.1281 56.5692 54.3451 56.8932 53.512 56.8932H49.4628C48.7145 56.8932 48.1082 57.4995 48.1082 58.2477C48.1082 58.996 48.7145 59.6023 49.4628 59.6023H52.0254C53.7444 59.6023 55.1429 61.0007 55.1429 62.7195C55.1429 63.5525 54.8187 64.3356 54.2303 64.9242C53.6404 65.5141 52.8573 65.8386 52.0254 65.8386H50.2121H47.9762C47.228 65.8386 46.6217 66.4449 46.6217 67.1932C46.6217 67.9414 47.228 68.5477 47.9762 68.5477H50.2121C51.9312 68.5477 53.3296 69.9462 53.3296 71.665C53.3296 72.498 53.005 73.2818 52.4181 73.8702C51.8679 74.4191 50.9989 74.7693 50.3485 74.7808C50.3035 74.7815 26.2223 74.7841 26.2223 74.7841C25.3308 74.7832 24.4386 74.4758 23.7104 73.9175Z" fill="black"/>
<path d="M74.2456 14.0979C74.2456 11.2515 71.9299 8.93579 69.0835 8.93579C66.2371 8.93579 63.9214 11.2515 63.9214 14.0979C63.9214 16.9443 66.2371 19.26 69.0835 19.26C71.9299 19.26 74.2456 16.9443 74.2456 14.0979ZM66.6305 14.0979C66.6305 12.7453 67.7309 11.6449 69.0835 11.6449C70.4361 11.6449 71.5365 12.7453 71.5365 14.0979C71.5365 15.4505 70.4361 16.5509 69.0835 16.5509C67.7309 16.5509 66.6305 15.4506 66.6305 14.0979Z" fill="black"/>
<path d="M69.9304 60.3168H67.5011C66.2215 60.3168 65.1805 59.2756 65.1805 57.996C65.1805 57.2478 64.5742 56.6415 63.8259 56.6415C63.0777 56.6415 62.4714 57.2478 62.4714 57.996C62.4714 60.7226 64.6524 62.9477 67.3611 63.0223V66.02C67.3611 66.7683 67.9674 67.3746 68.7157 67.3746C69.4639 67.3746 70.0702 66.7683 70.0702 66.02V63.0223C72.7791 62.9477 74.9602 60.7226 74.9602 57.996V56.1208C74.9602 54.381 73.8485 52.8511 72.1938 52.3132L66.0748 50.3256C65.5399 50.1517 65.1805 49.6572 65.1805 49.0948V46.4097C65.1805 45.3705 66.0259 44.5249 67.0651 44.5249H70.3666C71.4058 44.5249 72.2512 45.3705 72.2512 46.4097C72.2512 47.158 72.8575 47.7643 73.6058 47.7643C74.354 47.7643 74.9603 47.158 74.9603 46.4097C74.9603 43.8767 72.8996 41.8158 70.3666 41.8158H70.0702V38.8217C70.0702 38.0735 69.4639 37.4672 68.7157 37.4672C67.9674 37.4672 67.3611 38.0735 67.3611 38.8217V41.8158H67.0649C64.5321 41.8158 62.4712 43.8765 62.4712 46.4097V49.0948C62.4712 50.8346 63.5828 52.3645 65.2375 52.9022L71.3563 54.8898C71.8915 55.0637 72.2509 55.5584 72.2509 56.1208V57.996C72.2512 59.2756 71.21 60.3168 69.9304 60.3168Z" fill="black"/>
</svg>
