<svg width="82" height="82" viewBox="0 0 82 82" fill="none" xmlns="http://www.w3.org/2000/svg">
<path d="M49.6787 33.0829L37.469 44.6153L31.6092 38.5868C30.9596 37.918 29.8899 37.9028 29.2217 38.5524C28.5529 39.2027 28.5377 40.2717 29.1873 40.9405L36.2154 48.1551C36.8683 48.812 37.9234 48.8345 38.6035 48.2054L52.0331 35.5385C52.3592 35.2309 52.5497 34.8062 52.5623 34.3584C52.5748 33.9105 52.4088 33.4759 52.1005 33.1504C51.447 32.471 50.3693 32.4413 49.6787 33.0829Z" fill="black"/>
<path d="M40.6185 15.335C26.6643 15.335 15.3179 26.6814 15.3179 40.6356C15.3179 54.5904 26.6643 65.9369 40.6185 65.9369C54.5733 65.9369 65.9198 54.5904 65.9198 40.6356C65.9198 26.6814 54.5733 15.335 40.6185 15.335ZM40.6185 62.5499C28.5272 62.5499 18.7049 52.7104 18.7049 40.6356C18.7049 28.5608 28.5272 18.722 40.6185 18.722C52.7217 18.722 62.5328 28.533 62.5328 40.6356C62.5328 52.7382 52.7217 62.5499 40.6185 62.5499Z" fill="black"/>
<path d="M75.437 31.3213L75.996 21.2787C76.035 20.6046 75.6685 19.9716 75.0646 19.6699L66.1228 15.1484L61.6012 6.20658C61.2936 5.6079 60.6645 5.2434 59.9924 5.27515L49.9326 5.8176L41.5498 0.279328C40.9849 -0.0931094 40.2526 -0.0931094 39.687 0.279328L31.3041 5.8176L21.2622 5.25862C20.5874 5.21892 19.955 5.58541 19.6534 6.19004L15.1312 15.1319L6.19004 19.6534C5.5907 19.9603 5.22686 20.5894 5.25862 21.2622L5.81694 31.3048L0.279328 39.6876C-0.0931095 40.2526 -0.0931095 40.9849 0.279328 41.5505L5.80041 49.9498L5.24142 59.9924C5.20239 60.6665 5.56821 61.2996 6.17284 61.6012L15.1147 66.1228L19.6362 75.0646C19.9431 75.6639 20.5722 76.0277 21.245 75.996L31.2876 75.437L39.6704 80.9746C40.2321 81.359 40.9716 81.359 41.5333 80.9746L49.9161 75.437L59.9587 75.996C60.6328 76.035 61.2652 75.6685 61.5675 75.0646L66.089 66.1228L75.0308 61.6012C75.6295 61.2936 75.994 60.6652 75.9623 59.9924L75.4033 49.9498L80.9409 41.567C81.3133 41.0021 81.3133 40.2691 80.9409 39.7042L75.437 31.3213ZM72.2868 48.5613C72.0804 48.8643 71.9845 49.2288 72.0163 49.5946L72.5409 59.0947L64.0906 63.3622C63.7684 63.5236 63.5071 63.7856 63.3457 64.1078L59.0775 72.5581L49.5774 72.0335C49.2136 72.0202 48.8544 72.1142 48.5441 72.304L40.6184 77.5373L32.6933 72.304C32.4181 72.1181 32.094 72.0176 31.7619 72.0163H31.6772L22.1764 72.5415L17.9089 64.0906C17.7475 63.7684 17.4862 63.5071 17.1634 63.3457L8.69589 59.0947L9.22114 49.5946C9.23437 49.2308 9.13978 48.8715 8.94992 48.5613L3.71727 40.6356L8.94992 32.7099C9.15698 32.4075 9.2529 32.0424 9.22114 31.6772L8.69589 22.1764L17.1469 17.9089C17.469 17.7475 17.7303 17.4862 17.8917 17.1641L22.1592 8.71309L31.66 9.23834C32.0232 9.25091 32.3824 9.15697 32.6933 8.96712L40.6184 3.73447L48.5441 8.96712C48.8471 9.17417 49.2122 9.2701 49.5774 9.23834L59.0775 8.71309L63.3457 17.1641C63.5071 17.4862 63.7684 17.7475 64.0906 17.9089L72.5409 22.1764L72.0163 31.6772C72.003 32.0404 72.0976 32.3996 72.2868 32.7099L77.5202 40.6356L72.2868 48.5613Z" fill="black"/>
</svg>
