<svg width="18" height="18" viewBox="0 0 18 18" fill="none" xmlns="http://www.w3.org/2000/svg">
<path d="M4.02525 5.625H0V18H4.02525V5.625Z" fill="#929292"/>
<path d="M14.9895 5.77013C14.9468 5.75663 14.9062 5.742 14.8612 5.72962C14.8073 5.71725 14.7532 5.70713 14.6981 5.69813C14.4844 5.65538 14.2504 5.625 13.9759 5.625C11.6291 5.625 10.1407 7.33163 9.65025 7.99088V5.625H5.625V18H9.65025V11.25C9.65025 11.25 12.6923 7.01325 13.9759 10.125C13.9759 12.9026 13.9759 18 13.9759 18H18V9.64912C18 7.77937 16.7186 6.22125 14.9895 5.77013Z" fill="#929292"/>
<path d="M1.96875 3.9375C3.05606 3.9375 3.9375 3.05606 3.9375 1.96875C3.9375 0.881439 3.05606 0 1.96875 0C0.881439 0 0 0.881439 0 1.96875C0 3.05606 0.881439 3.9375 1.96875 3.9375Z" fill="#929292"/>
</svg>
