<svg width="26" height="34" viewBox="0 0 26 34" fill="none" xmlns="http://www.w3.org/2000/svg">
<path d="M12.5598 0C5.63416 0 0 5.63416 0 12.5598C0 14.8397 1.02251 17.2918 1.06536 17.3953C1.39561 18.1791 2.04724 19.3967 2.51712 20.1104L11.1287 33.1585C11.4811 33.6934 12.0027 34 12.5598 34C13.1168 34 13.6384 33.6934 13.9908 33.1592L22.6031 20.1104C23.0737 19.3967 23.7246 18.1791 24.0549 17.3953C24.0977 17.2926 25.1195 14.8405 25.1195 12.5598C25.1195 5.63416 19.4854 0 12.5598 0ZM22.6925 16.8219C22.3977 17.5246 21.7912 18.6571 21.3693 19.297L12.757 32.3458C12.5871 32.6036 12.5332 32.6036 12.3632 32.3458L3.75093 19.297C3.32907 18.6571 2.72251 17.5238 2.42773 16.8212C2.41517 16.7909 1.47762 14.5339 1.47762 12.5598C1.47762 6.44907 6.44907 1.47762 12.5598 1.47762C18.6704 1.47762 23.6419 6.44907 23.6419 12.5598C23.6419 14.5368 22.7021 16.7998 22.6925 16.8219Z" fill="black"/>
<path d="M12.5594 5.91113C8.89273 5.91113 5.91016 8.89444 5.91016 12.5604C5.91016 16.2264 8.89273 19.2097 12.5594 19.2097C16.2261 19.2097 19.2087 16.2264 19.2087 12.5604C19.2087 8.89444 16.2261 5.91113 12.5594 5.91113ZM12.5594 17.7321C9.70837 17.7321 7.38777 15.4122 7.38777 12.5604C7.38777 9.70861 9.70837 7.38875 12.5594 7.38875C15.4105 7.38875 17.7311 9.70861 17.7311 12.5604C17.7311 15.4122 15.4105 17.7321 12.5594 17.7321Z" fill="black"/>
</svg>
