<svg width="20" height="20" viewBox="0 0 20 20" fill="none" xmlns="http://www.w3.org/2000/svg">
<path d="M10.2719 0C4.79037 0 1.87524 3.51266 1.87524 7.34283C1.87524 9.11916 2.86779 11.3343 4.45661 12.0368C4.69787 12.1455 4.82913 12.0993 4.88288 11.8755C4.93038 11.7055 5.13914 10.8867 5.2404 10.5005C5.27165 10.3767 5.2554 10.2692 5.15539 10.153C4.62787 9.54293 4.2091 8.43163 4.2091 7.38908C4.2091 4.71771 6.33294 2.12385 9.94686 2.12385C13.072 2.12385 15.2583 4.15394 15.2583 7.05782C15.2583 10.3392 13.522 12.6093 11.2657 12.6093C10.0169 12.6093 9.08682 11.6293 9.38183 10.4167C9.7381 8.9729 10.4369 7.42033 10.4369 6.37904C10.4369 5.44525 9.90936 4.67271 8.83181 4.67271C7.5605 4.67271 6.5292 5.93152 6.5292 7.62159C6.5292 8.69539 6.90922 9.42042 6.90922 9.42042C6.90922 9.42042 5.65166 14.5007 5.4179 15.4494C5.02289 17.0558 5.47166 19.6571 5.51041 19.8809C5.53416 20.0047 5.67291 20.0434 5.75042 19.9421C5.87417 19.7796 7.39424 17.6108 7.82051 16.0432C7.97552 15.4719 8.6118 13.1556 8.6118 13.1556C9.03057 13.9119 10.2394 14.5457 11.5269 14.5457C15.3571 14.5457 18.1247 11.1793 18.1247 7.00156C18.111 2.99638 14.6833 0 10.2719 0Z" fill="#FAFAFA"/>
</svg>
