<svg width="22" height="22" viewBox="0 0 22 22" fill="none" xmlns="http://www.w3.org/2000/svg">
<path d="M21.5467 5.71886C21.2931 4.77641 20.5501 4.03352 19.6078 3.77974C17.8862 3.30859 10.9998 3.30859 10.9998 3.30859C10.9998 3.30859 4.11357 3.30859 2.39197 3.76178C1.46781 4.01539 0.706632 4.77657 0.453016 5.71886C0 7.44029 0 11.0104 0 11.0104C0 11.0104 0 14.5984 0.453016 16.3019C0.706799 17.2442 1.44969 17.9872 2.39214 18.241C4.1317 18.7122 11 18.7122 11 18.7122C11 18.7122 17.8862 18.7122 19.6078 18.259C20.5502 18.0054 21.2931 17.2623 21.5469 16.32C21.9999 14.5984 21.9999 11.0285 21.9999 11.0285C21.9999 11.0285 22.018 7.44029 21.5467 5.71886Z" fill="white"/>
<path d="M8.80713 14.3085L14.5336 11.0103L8.80713 7.71216V14.3085Z" fill="#C9A2A2"/>
</svg>
